<?xml version="1.0" standalone="no"?>
<!DOCTYPE svg PUBLIC "-//W3C//DTD SVG 20010904//EN"
 "http://www.w3.org/TR/2001/REC-SVG-20010904/DTD/svg10.dtd">
<svg version="1.0" xmlns="http://www.w3.org/2000/svg"
 width="700.000000pt" height="700.000000pt" viewBox="0 0 700.000000 700.000000"
 preserveAspectRatio="xMidYMid meet">
<metadata>
Created by potrace 1.14, written by Peter Selinger 2001-2017
</metadata>
<g transform="translate(0.000000,700.000000) scale(0.100000,-0.100000)"
fill="#000000" stroke="none">
<path d="M3298 6295 c-2 -2 -39 -6 -83 -10 -68 -6 -191 -25 -320 -50 -136 -26
-440 -130 -578 -197 -43 -21 -80 -38 -82 -38 -2 0 -59 -32 -127 -71 -592 -344
-1023 -863 -1251 -1504 -35 -97 -81 -259 -92 -320 -2 -16 -7 -41 -10 -55 -6
-31 -22 -122 -29 -170 -15 -93 -21 -202 -21 -380 0 -244 9 -340 51 -560 16
-80 48 -201 79 -300 314 -969 1136 -1697 2135 -1889 196 -38 286 -46 515 -46
234 0 356 10 518 41 42 9 87 17 100 20 53 10 69 14 171 43 224 65 490 181 682
299 384 235 708 561 943 950 60 99 166 307 188 367 6 17 23 62 38 100 14 39
28 77 30 85 3 8 18 59 34 113 72 242 103 455 106 742 4 292 -23 514 -92 765
-189 691 -628 1278 -1236 1654 -194 120 -463 240 -682 303 -66 20 -106 30
-207 53 -37 8 -147 26 -283 46 -43 6 -491 14 -497 9z"/>
</g>
</svg>
